<?xml version="1.0" encoding="UTF-8" standalone="no"?>
<!-- Created with Inkscape (http://www.inkscape.org/) -->

<svg
   xmlns:dc="http://purl.org/dc/elements/1.1/"
   xmlns:cc="http://creativecommons.org/ns#"
   xmlns:rdf="http://www.w3.org/1999/02/22-rdf-syntax-ns#"
   xmlns:svg="http://www.w3.org/2000/svg"
   xmlns="http://www.w3.org/2000/svg"
   xmlns:sodipodi="http://sodipodi.sourceforge.net/DTD/sodipodi-0.dtd"
   xmlns:inkscape="http://www.inkscape.org/namespaces/inkscape"
   width="24"
   height="24"
   viewBox="0 0 24 24"
   id="svg14243"
   version="1.1"
   inkscape:version="0.91 r13725"
   sodipodi:docname="measure-bearing.svg">
  <defs
     id="defs14245" />
  <sodipodi:namedview
     id="base"
     pagecolor="#ffffff"
     bordercolor="#666666"
     borderopacity="1.0"
     inkscape:pageopacity="0.0"
     inkscape:pageshadow="2"
     inkscape:zoom="5.656854"
     inkscape:cx="-21.163584"
     inkscape:cy="23.784966"
     inkscape:document-units="px"
     inkscape:current-layer="layer1"
     showgrid="true"
     units="px"
     inkscape:window-width="1920"
     inkscape:window-height="1178"
     inkscape:window-x="1920"
     inkscape:window-y="0"
     inkscape:window-maximized="1">
    <inkscape:grid
       type="xygrid"
       id="grid18732" />
  </sodipodi:namedview>
  <metadata
     id="metadata14248">
    <rdf:RDF>
      <cc:Work
         rdf:about="">
        <dc:format>image/svg+xml</dc:format>
        <dc:type
           rdf:resource="http://purl.org/dc/dcmitype/StillImage" />
        <dc:title />
      </cc:Work>
    </rdf:RDF>
  </metadata>
  <g
     inkscape:label="Layer 1"
     inkscape:groupmode="layer"
     id="layer1"
     transform="translate(0,-1028.3622)">
    <g
       id="g4137"
       transform="matrix(0,-1,-1,0,1051.3622,1051.3622)"
       style="fill:#ffffff">
      <path
         inkscape:connector-curvature="0"
         id="path18734"
         d="m 2.5,1044.3622 a 2.5,2.5 0 0 0 -2.5,2.5 2.5,2.5 0 0 0 2.5,2.5 2.5,2.5 0 0 0 2.4453,-2 l 13.1055,0 a 2.5,2.5 0 0 0 2.4492,2 2.5,2.5 0 0 0 2.5,-2.5 2.5,2.5 0 0 0 -2.5,-2.5 2.5,2.5 0 0 0 -2.4453,2 l -13.1055,0 a 2.5,2.5 0 0 0 -2.4492,-2 z m 0,1 a 1.5,1.5 0 0 1 1.5,1.5 1.5,1.5 0 0 1 -1.5,1.5 1.5,1.5 0 0 1 -1.5,-1.5 1.5,1.5 0 0 1 1.5,-1.5 z m 18,0 a 1.5,1.5 0 0 1 1.5,1.5 1.5,1.5 0 0 1 -1.5,1.5 1.5,1.5 0 0 1 -1.5,-1.5 1.5,1.5 0 0 1 1.5,-1.5 z"
         style="opacity:1;fill:#ffffff;fill-opacity:1;stroke:none;stroke-width:8;stroke-linecap:round;stroke-miterlimit:4;stroke-dasharray:none;stroke-opacity:1" />
      <path
         sodipodi:nodetypes="ccccccccscscs"
         inkscape:transform-center-y="-7.1031499"
         inkscape:transform-center-x="-5.5269151"
         inkscape:connector-curvature="0"
         id="path18734-3"
         d="m 4.2857252,1045.3277 8.1066998,-10.2107 c 1.0644,0.5272 2.3529,0.2326 3.0825,-0.7048 0.8479,-1.0897 0.6519,-2.6605 -0.4379,-3.5084 -1.0897,-0.8479 -2.6604,-0.6518 -3.5083,0.4379 -0.727,0.9376 -0.6949,2.257 0.077,3.1581 l -8.1065998,10.2107 z m 8.0321998,-13.3719 c 0.5088,-0.6538 1.4512,-0.7714 2.105,-0.2627 0.6539,0.5087 0.7715,1.4512 0.2627,2.105 -0.5087,0.6538 -1.4511,0.7714 -2.1049,0.2627 -0.6539,-0.5087 -0.7715,-1.4512 -0.2628,-2.105 z"
         style="opacity:1;fill:#ffffff;fill-opacity:1;stroke:none;stroke-width:8;stroke-linecap:round;stroke-miterlimit:4;stroke-dasharray:none;stroke-opacity:1" />
      <path
         inkscape:connector-curvature="0"
         id="path4151"
         d="m 9.3144479,1038.8739 -0.6504,0.7637 a 9.5,9.5 0 0 1 3.3223001,6.8281 l 1.0039,-0.043 a 10.5,10.5 0 0 0 -3.6758001,-7.5488 z"
         style="opacity:1;fill:#ffffff;fill-opacity:1;stroke:none;stroke-width:1;stroke-linecap:round;stroke-linejoin:miter;stroke-miterlimit:4;stroke-dasharray:none;stroke-opacity:1" />
    </g>
  </g>
</svg>
